<svg fill="none" height="160" viewBox="0 0 432 160" width="432" xmlns="http://www.w3.org/2000/svg" xmlns:xlink="http://www.w3.org/1999/xlink"><clipPath id="a"><path d="m0 0h432v160h-432z"/></clipPath><mask id="b" height="80" maskUnits="userSpaceOnUse" width="80" x="176" y="40"><circle cx="215.869" cy="79.8689" fill="#d9d9d9" r="39.8689"/></mask><g clip-path="url(#a)"><path d="m0 0h432v160h-432z" fill="#fff"/><g mask="url(#b)"><path d="m237.725 112.784c-.183.131-.392.262-.575.393-.209.13-.392.261-.601.366-.183.104-.34.209-.523.313-.026.026-.052.026-.079.053-.601.366-1.228.705-1.856 1.019-.183.105-.392.209-.575.288 0 0-.026.026-.052.026-.209.104-.419.209-.628.314-.418.209-.862.392-1.281.575-.209.104-.444.183-.653.261-.209.079-.445.183-.654.262-.209.078-.444.183-.653.261 0 0 0 0-.027 0-.209.079-.444.157-.653.235-.471.157-.968.314-1.438.471-.157.052-.34.105-.497.157-.497.157-.993.287-1.49.392-.183.052-.366.078-.575.131-.471.104-.968.209-1.438.313-.105.027-.183.027-.288.053-.157.026-.34.052-.496.078-.236.026-.445.079-.68.105-.105.026-.209.026-.314.052-.131.026-.287.052-.444.052-.419.053-.863.105-1.281.157-.131.026-.288.026-.419.052h-.026c-.183.027-.366.027-.549.053s-.366.026-.549.026c-.104 0-.235.026-.34.026-.209 0-.392.026-.575.026-.261 0-.497.026-.758.026-.262 0-.497 0-.758 0-.183 0-.366 0-.549 0-11.033-.157-20.941-4.836-28.026-12.261 0 0 0-.026-.027-.026-.784-.706-.104-4.471 3.059-6.85 3.974-3.0065 13.49-4.8888 13.49-4.8888s3.687-.6013 17.36 2.2483c8 1.6732 14.091 4.1045 17.49 10.6925.706 1.36 1.412 3.451-1.072 4.549z" fill="#fff"/><path d="m221.386 97.255c5.019 1.0196 10.379 2.1177 14.51 5.438 1.385 1.124 2.3 2.771 3.058 4.366.366.784.732 1.595 1.02 2.457.157.576.392 1.229.261 1.909-.026.183-.183.418-.313.549-.602.601-1.255.967-1.909 1.438-3.843 2.667-8.261 4.549-12.836 5.542-10.197 2.223-21.229.497-30.197-4.862-2.98-1.804-5.725-4-8.078-6.589-.261-.313-.261-.836-.261-1.176.026-.784.235-1.543.496-2.248.628-1.621 1.438-3.242 2.824-4.3665.993-.6797 2.065-1.2549 3.163-1.7254 3.451-1.4641 7.085-2.4837 10.824-2.902.314-.0262.366.4183.052.4706-3.582.732-7.137 1.83-10.457 3.3202-1.203.6013-2.484 1.1241-3.451 2.0651-.915.994-1.569 2.223-2.092 3.477-.34.759-.575 1.961-.47 2.563 1.647 1.96 3.581 3.686 5.673 5.176 11.451 8 28.836 8.523 41.019 1.856 1.098-.601 2.17-1.281 3.19-1.987.497-.34 1.019-.627 1.412-1.019.026-.026 0 0 0 .026s-.027.052-.027.052c.027-.314-.078-.732-.209-1.15-.47-1.517-1.228-3.111-2.039-4.497-1.281-2.065-3.451-3.373-5.647-4.418-1.516-.706-3.111-1.2552-4.732-1.778-1.621-.5229-3.268-.9674-4.915-1.3595-.418-.1046-.288-.7059.131-.6275z" fill="#000"/><path d="m200.026 90.6404s2.432-.5752 3.451-.6536l.314 2.8497c0-.0262-3.738-1.4641-3.765-2.1961z" fill="#000"/><path d="m241.411 128.993h-61.124s3.896-8.34 5.255-17.751c.941-6.562 2.065-10.092 5.542-12.1833 3.922-2.353 10.249-3.4249 12.811-4.1046 0 .1307.026.2353.026.366 0 0 2.824 8.3919 10.17 11.3729 5.987 2.431 9.543.81 10.092-1.883.339-1.725-.732-4.549-1.282-5.4637-.313-.2615-.522-.6536-.627-1.0458l-.209-.8627c.653-.1308 1.281-.3138 1.882-.5491 3.373.8889 9.883 2.5883 13.856 7.6343.994 1.255 4.105 7.921 3.53 19.189-.209 5.856.078 5.281.078 5.281z" fill="#000"/><path d="m193.228 128.993-1.176-9.699" stroke="#fff" stroke-linecap="round" stroke-linejoin="round" stroke-miterlimit="10" stroke-width=".184615"/><path d="m238.901 116s-.784 1.908-.549 3.817c.235 1.908.915 4.706-.052 9.176" stroke="#fff" stroke-linecap="round" stroke-linejoin="round" stroke-miterlimit="10" stroke-width=".184615"/><path d="m212.131 111.555c-14.458-4.183-18.092-12.6794-18.092-12.6794s2.275-1.4117 3.346-2.8758c.654-.8889 6.536-1.9085 6.536-1.9085.105 1.1242 0 0 .079 1.2288 0 0 2.823 8.3919 10.17 11.3729 5.987 2.431 9.542.81 10.091-1.883.34-1.725-.732-4.549-1.281-5.4638-.313-.2614-.523-.6536-.627-1.0457l-.209-.8628c1.49-.3137 2.902-.8889 4.13-1.647.053.0784.079.1568.105.2353.549 1.3333 2.222 2.5359 2.222 2.5359 3.477 8.2611-1.751 17.2551-16.47 12.9931z" fill="#000"/><path d="m229.647 98.1962s1.203-.5752 2.406-.4445c1.202.1308 6.928 4.7583 7.477 5.7253.575.968.549 4.053-.131 4.445s-1.072-.471-1.072-.471.497-2.823-.052-3.346-5.856-4.9676-6.039-4.9938c-.183-.0261-1.177.8105-1.177.8105z" fill="#000"/><path d="m197.961 96.601s-2.719-1.3857-3.739-1.3857c-1.019 0-6.954 3.6602-7.765 5.5687-.81 1.908.288 5.752.288 5.752l1.438-1.647s-.392-2.876.026-3.922c.418-1.0458 5.15-4.1308 5.569-4.0523.418.0523 2.745 1.5425 2.745 1.5425z" fill="#000"/><path d="m204.131 101.647c2.51 4.81 7.529 11.216 15.921 14.222 7.556 2.719 7.085-6.405 5.987-11.869-7.529 1.647-15.085 1.778-21.908-2.353z" fill="#fff"/><path d="m226.038 104.026c-.287-1.438-.627-2.614-.862-3.268-.523-1.4117-1.307-2.6666-2.013-3.6077-.34.1045-.68.183-1.02.2614l.209.8627c.105.4183.314.7843.628 1.0458.052.1046.13.2353.209.3921-5.935 2.3007-12.941-.732-12.941-.732-2.118-.1046-1.961 1.9867-.968 4.4707-3.764-3.5818-5.307-8.1308-5.307-8.1308-.052-.7843-.104-1.5425-.183-2.3007 0 0-1.935 1.0719-1.595 3.4772.157 1.0196.759 2.9281 1.935 5.1503 6.823 4.131 14.379 4 21.908 2.379z" fill="#fff"/><path d="m225.934 103.948c-.078-.131-.105-.209-.157-.366-.314-1.02-.654-2.092-1.124-3.033-.549-1.0981-1.255-2.0915-2.039-3.0066l.732.2353-1.072.2876.523-.8104c.052.2352.183.7843.235.9934.078.3137.314.5229.497.7582-.026.2091-.053.4183-.105.6013.052.1569 0 .3399-.157.4182-.758.366-1.594.654-2.431.837-3.085.627-6.222-.079-9.177-.9415-.575-.183-1.098-.3137-1.725-.2614l.235.0523c-.157 0-.34 0-.496.0523-.785.2353-.419 1.5943-.262 2.2483.131.418.262.837.445 1.255.156.34-.027.732-.367.889-.261.104-.522.026-.705-.157-.602-.601-1.177-1.203-1.7-1.856-1.595-1.987-2.849-4.1571-3.764-6.5362l.627.4444c-.366 0-.654-.2875-.68-.6274l-.183-2.2745.994.5229c-1.177.7058-1.517 2.1699-1.124 3.4248.392 1.464 1.019 2.928 1.725 4.288l-.261-.262c6.353 4.262 14.274 4.601 21.516 2.824zm.209.13c-.863.628-2.353 1.151-3.451 1.386-2.588.575-5.307.235-7.895-.183-.811-.131-1.987-.288-2.824-.418l-1.385-.288c-1.857-.444-3.687-1.046-5.465-1.778l-.653-.287-.68-.288c-.078-.026-.157-.104-.209-.183-.863-1.673-1.647-3.4247-2.013-5.307-.34-1.6471.444-3.451 1.908-4.3137.419-.2353.968.0522.994.5228l.183 2.3007s-.68-.6275-.654-.6275c.288 0 .549.183.628.4445.81 2.1961 2.039 4.3137 3.529 6.1442.497.627 1.046 1.176 1.595 1.751l-1.072.732c-.523-1.412-1.229-3.215-.288-4.6272.445-.5752 1.203-.7843 1.909-.7582l.235.0523c.366.4706.889.6797 1.386.8366 2.562.8365 5.333.9935 8.026.7843 1.072-.1046 2.118-.3137 3.163-.5752l-.156.4183c-.183-.0784-.34-.1307-.523-.1568l.13.1568c-.496-.4183-.81-1.1241-.915-1.7516l-.13-.5229c-.079-.366.157-.732.523-.8104l.967-.2353h.052c.262-.0784.549.0523.68.2614 1.046 1.6209 1.83 3.4509 2.17 5.3599.104.444.157.941.235 1.411-.026.157 0 .393 0 .549z" fill="#000"/><path d="m200.026 90.6406s6.458.2092 11.373 1.5164c.471.1307.471 3.1634.523 3.6601.183 1.7778-3.53 4.8109-3.111 6.4049.549 2.066 15.372 13.674 15.503 15.033s-10.745 1.02-17.203-6.719c-6.483-7.739-5.987-9.15-5.987-9.15s-1.098-7.4251-1.098-10.7454z" fill="#000"/><path d="m229.02 93.438 1.673.7059c.523.2091.784.8104.601 1.3595-.758 2.3006-2.64 8.0256-2.718 10.0126-.105 2.51-5.282 18.641-5.282 18.641s-3.163-4.157-.836-8.261c1.83-3.242 1.934-10.17 1.751-11.085-.235-1.203-1.228-4.027-1.777-5.8044-.288-.9673-.34-1.5686-.34-1.5686s3.608-.6013 6.928-4z" fill="#000"/><path d="m209.569 97.7255c.418 0 .758-.3863.758-.8628 0-.4764-.34-.8627-.758-.8627-.419 0-.758.3863-.758.8627 0 .4765.339.8628.758.8628z" fill="#fff"/><path d="m223.033 115.137c-.209 1.412-.419 2.85-.314 4.288.34 2.117.471 4.235.654 6.353.026.522-.732.575-.785.052-.078-2.118-.13-4.262-.392-6.379-.052-1.49.209-2.954.497-4.392.052-.183.366-.131.34.078z" fill="#fff"/><path d="m230.274 99.3986c-.47 2.3264-.993 4.6794-1.856 6.9024-1.307 2.771-3.085 5.281-4.601 7.895-.131.235-.497.052-.392-.183 1.255-2.954 3.085-5.595 4.314-8.523.104-.314.679-2.039.784-2.379.418-1.281.863-2.562 1.359-3.817.105-.2353.445-.1568.392.1046z" fill="#000"/><path d="m226.666 114.745c.477 0 .863-.386.863-.863 0-.476-.386-.862-.863-.862-.476 0-.862.386-.862.862 0 .477.386.863.862.863z" fill="#fff"/><path d="m223.843 104.209c-.549 2.693-4.105 4.314-10.092 1.883-6.222-2.51-8.915-8.4971-9.595-10.2749 3.687-6.9019 1.124-11.6863 1.124-11.6863 8.497-.732 15.922 9.2027 15.922 9.2027l1.15 4.915c.105.4183.314.7843.628 1.0457.549.9678 1.202 3.1898.863 4.9148z" fill="#fff"/><path d="m204.026 95.8956c.497-.7582.811-1.6471 1.02-2.5098.392-1.804.523-3.634.549-5.4641v-.6797c-.079-.6798-.314-1.3857-.575-2.0131-.34-.8366.889-1.3595 1.281-.5229.052.1046.052.2876.052.3922.078 3.5555.235 8.1307-2.013 11.0849-.157.1569-.471-.0784-.314-.2875z" fill="#000"/><path d="m221.49 93.281c.392.2353.523.549.575.8627.157.6275.105 1.3072.261 1.9608.131.6274.523 1.2288.628 1.8824.131.6797.523 2.1171.68 2.8231.052.157-.053.34-.236.366-.104.027-.183 0-.261-.052-.34-.287-.497-.575-.706-.941-.34-.6275-.575-1.2027-.784-1.9086-.183-.6274-.105-1.3072-.262-1.9608-.13-.6274-.496-1.2287-.627-1.8823-.079-.3137-.105-.6536.131-1.0458.156-.1568.418-.2091.601-.1045z" fill="#000"/><path d="m223.373 100.183c-4.994-.2613-9.072-1.83-13.046-8.9149 3.347 2.9542 7.294 4.0784 11.451 4.6013l.549 2.4052c.105.4183.732 1.6471 1.046 1.9084z" fill="#000"/><path d="m223.163 99.2154c.889 1.6736 1.412 3.7646.863 5.6206-.419 1.308-1.621 2.275-2.928 2.641-3.033.81-6.536-.471-9.229-1.909-3.32-1.856-5.778-4.967-7.347-8.3657-.104-.2614.262-.4705.419-.2091.549 1.098 1.176 2.1699 1.882 3.1368.706.994 1.516 1.909 2.431 2.719 2.667 2.406 6.275 3.896 9.883 3.896 3.712-.105 5.124-2.066 4.261-5.673-.13-.576-.34-1.1768-.627-1.6736-.157-.2091.235-.4444.392-.183z" fill="#000"/><path d="m233.281 67.817c.47 2.1961.706 3.9739-.575 9.8301-1.255 5.8301 1.804 7.0327-5.438 16.366-2.954 3.817-10.118 2.7451-15.922-1.2026-1.961-1.3333-2.797-4.7582-4.261-7.1895-1.151-1.9085-1.673.0784-3.19-1.5687-2.065-2.2483-4.549-6.7712-3.32-14.7712 1.987-12.9673 12.261-14.4837 19.869-13.0458 7.66 1.4641 11.582 5.804 12.837 11.5817z" fill="#fff"/><path d="m205.202 86.3792c-.601-1.0196-1.385-1.9085-2.117-2.8496-.706-.9674-1.281-2.0393-1.752-3.1373-3.111-7.634-1.908-18.3791 5.726-22.8758 3.163-1.8301 6.98-2.2745 10.535-1.9869 7.608.549 14.589 4.0522 16.236 12.1045.889 3.5556-.314 7.2157-.994 10.6928-.313 1.7255-.052 3.5033-.078 5.2811-.026 1.8039-.523 3.6078-1.203 5.281-.418 1.1504-1.15 2.17-1.908 3.1111-1.255 1.5164-2.51 3.0589-4.105 4.2353-.366.2615-1.019.3922-1.464.4445-1.229.183-2.431.2353-3.66.1568-4.81-.2091-9.961-2.5359-11.895-7.1895-.079-.183.183-.3137.287-.1569 2.51 3.9739 7.111 5.9347 11.686 6.1961 1.412.0785 2.85.0523 4.236-.2353.679-.3398 1.281-.9412 1.856-1.4902 1.412-1.4117 2.85-2.9281 3.869-4.6536 1.229-2.3268 1.909-4.8627 1.7-7.5032-.053-1.1765-.079-2.4053.156-3.5817.21-1.1765.471-2.3007.628-3.5033.157-1.1503.235-2.3268.235-3.4771-.131-3.3726-1.229-6.8497-3.372-9.4641-4.732-5.8823-15.922-7.4248-22.223-3.3987-3.973 2.4575-5.83 7.0589-6.431 11.5294-.915 5.3595-.654 10.6406 3.608 14.536l1.255 1.3072c.497.5751-.392 1.2549-.811.6274z" fill="#000"/><path d="m208.287 78.0654s-.81-3.9216-4.627-3.451c-3.294.4183-4.445 8.3137 3.032 10.5098" fill="#fff"/><g fill="#000"><path d="m206.353 81.6995c-.601-.3399-1.02-.9151-1.046-1.6209.026-.5229.105-1.1242-.026-1.6471-.078-.4967-.601-.6275-.993-.6013-.419.0784-.68.6013-.759 1.0196 0 .0261-.026.1046-.026.1307-.026.1307-.235.1307-.287 0-.34-1.0196.418-2.1438 1.516-2.0131 1.543.1046 1.752 1.7255 1.464 2.9543-.157.5229.052.9935.34 1.4379l.052.0784c.131.1569-.078.366-.235.2615z"/><path d="m227.268 75.2943c.392 1.8562 1.124 3.5817 2.039 5.2026.811 1.987-1.281 3.8693-3.137 3.7909-.209 0-.236-.2876-.053-.3399 1.177-.366 2.249-1.1503 2.432-2.3529.078-.366-.026-.6798-.209-.9935-.863-1.6209-1.386-3.4771-1.255-5.3072 0-.1307.183-.1307.183 0z"/><path d="m208.156 78.0919c-.601-1.5425-1.908-3.0066-3.66-2.9804-.157-.0262-.418.0261-.575.0261-.445.0262-.811.183-1.15.4967-1.674 1.6732-1.386 4.6275-.027 6.4837.471.6536 1.072 1.2288 1.752 1.6994.68.4705 1.438.8366 2.248 1.1503.183.0523.105.3398-.078.3137-1.752-.366-3.425-1.2288-4.575-2.6667-1.778-2.1438-2.144-5.7255-.026-7.817.47-.4183 1.124-.732 1.777-.732.21 0 .523-.0523.732 0 1.099.0523 2.144.6013 2.824 1.4641.601.732.941 1.6209 1.046 2.5098 0 .1568-.236.2091-.288.0523z"/><path d="m225.28 86.876c-.81.6536-1.934.6797-2.902.4444-.313-.0784-.679-.1307-.862-.4706-.183-.2876 0-.6536.34-.7059.339-.0784.549.0785.836.1569.758.2614 1.595.4183 2.379.1569.209-.0523.419.2614.209.4183z"/><path d="m222.405 85.2025c.549.9673-.235 2.1177-1.176 2.4837-.209.1046-1.203.3137-1.177-.0784 0-.0523.053-.1046.105-.1308.941-.4183 1.621-1.281 1.778-2.2745.026-.2091.313-.2614.418-.0784z"/><path d="m217.517 77.9607c-.628-.0262-1.099-.5491-1.046-1.1765l.026-.732c.026-.6275.549-1.0981 1.176-1.0458.628.0262 1.098.549 1.046 1.1765l-.026.732c-.026.6013-.549 1.0719-1.176 1.0458z"/><path d="m228.523 78.3529c-.575-.0261-1.02-.5229-.994-1.098l.027-.6798c.026-.5751.522-1.0196 1.098-.9934.575.0261 1.019.5228.993 1.098l-.026.6797c-.026.5752-.523 1.0196-1.098.9935z"/><path d="m219.869 76.5491c-.863-.5751-1.804-.9673-2.85-.7582-.339.0523-.679.1569-.888.3922-.079.1046-.262.0784-.262-.0784.026-.5229.471-.8628.889-1.0719.81-.4183 1.935-.3399 2.667.2091.261.1569 1.15 1.1242.679 1.3334-.104.0522-.156.0261-.235-.0262z"/><path d="m227.347 76.6799c0-1.098 1.359-1.4902 2.196-1.098.47.2092.81.6275.941 1.1242.052.1568-.183.2876-.288.1568-.444-.5228-1.202-.7843-1.804-.4705-.183.1045-.209.183-.261.2875 0 .5229-.758.4968-.784 0z"/><path d="m221.124 72.2354c.549.1831 1.098-.3137.994-.915-.053-.3137-.183-.6274-.445-.8627-.784-.7059-4.026-1.3334-5.987-.4183-1.725.8366 2.928 1.3594 5.438 2.196z"/><path d="m228.941 72.6535c-.445.1569-.915-.3137-.837-.8627.026-.2876.131-.5752.34-.7843.628-.6275 2.771-1.1242 4.131-.1569 1.176.8105-1.595 1.0457-3.634 1.8039z"/><path d="m230.223 60.183c-1.334-1.2288-3.007-2.4314-5.046-3.2419-6.039-2.4575-11.66-2.3791-16.078-.4706-.131-2.562-.811-6.4836-3.817-7.1372-4.549-1.0196-2.981 3.9477-1.569 7.0588 0 0-5.438-4.8627-7.817-1.5686-2.275 3.1634 3.425 6.6144 3.425 6.6144s-8.445.6797-6.667 5.4902c1.046 2.7712 4.549 1.8562 7.347.6013-2.275 9.0196 1.673 15.1634 3.712 17.6209 2.091 2.5098 2.274 4.4183 2.274 4.4183 1.072-.6013-.209-3.2941-.156-4.7059-6.536-2.5098-5.36-9.8039-2.17-10.2222 3.346-.4183 4.392 2.5621 4.575 3.2941 1.202-1.4379 1.202-2.8235.967-4.2614-.915-5.2549-.392-8.1046 2.771-8.7844 5.046-1.098 9.595 1.4641 15.608 2.2746 2.222.3137 3.608-1.7255 5.255-.9935.183.549.34 1.098.471 1.6732.104.4444.183.8627.235 1.3072.261-3.6601-.497-6.353-3.32-8.9673z"/><path d="m251.346 62.039c15.87 30.5621-12.026 65.046-45.281 56.627-14.928-3.712-26.928-16.653-29.412-31.8427-2.823-15.1111 4-31.3464 16.759-39.8954 17.49-12.0262 41.725-8.0262 54.248 9.1765.078.0784.052.2091-.052.2875-.079.0785-.209.0523-.288-.0522-1.725-2.2223-3.686-4.2353-5.83-6.0393-3.529-3.0065-7.66-5.3594-12.026-6.9542-22.222-8.0523-46.614 5.3333-51.477 28.5752-5.49 26.0392 16.653 50.0126 43.059 46.4316 20.366-2.562 35.503-21.3598 33.83-41.8042-.366-4.9412-1.674-9.8301-3.843-14.3268-.053-.0784 0-.183.078-.2353s.183-.0261.235.0523z"/></g></g></g></svg>